Coordinates
version=1
nRows=10
nColumns=33
inDegrees=yes

Units are S.I. units (second, meters, Newtons, ...)
Angles are in degrees.

endheader
time	ground_thorax_rot_x	ground_thorax_rot_y	ground_thorax_rot_z	ground_thorax_tx	ground_thorax_ty	ground_thorax_tz	clav_prot_r	clav_elev_r	scapula_abduction_r	scapula_elevation_r	scapula_upward_rot_r	scapula_winging_r	shoulder_elv_r	plane_of_elev_r	axial_rot_r	elbow_flexion_r	pro_sup_r	wrist_flex_r	wrist_dev_r	clav_prot_l	clav_elev_l	scapula_abduction_l	scapula_elevation_l	scapula_upward_rot_l	scapula_winging_l	shoulder_elv_l	plane_of_elev_l	axial_rot_l	elbow_flexion_l	pro_sup_l	wrist_flex_l	wrist_dev_l
      8.84000000	    -41.16091482	    -11.24905936	     10.06529353	   -197.29736541	    820.22493898	    -11.38413755	      9.53560960	    -45.00000000	     32.01622689	    -45.00000000	    -45.00000000	   2422.87605915	    426.79848283	     27.35382274	     92.78873092	   1453.19954626	     37.36650615	     18.36312682	      7.22708761	     16.12595370	     39.03592314	    -34.80338124	    -45.00000000	    -45.00000000	    801.58594315	  -2980.83112480	    142.03066979	    152.77401068	      9.47778311	     37.31302629	      9.74577627	    -22.23512049
      8.85000000	    -41.15844317	    -11.02612300	     10.05347784	   -198.35338625	    820.59602151	    -11.27108052	      8.42041240	    -45.00000000	     31.73570134	    -45.00000000	    -45.00000000	   2422.99717688	    426.90487406	     27.31716204	     92.73375393	   1453.23954710	     37.37917767	     18.08312896	      7.23122421	     15.21392958	     38.70916014	    -34.76469852	    -45.00000000	    -45.00000000	    801.50465844	  -2980.79637413	    142.38040920	    151.44332617	      9.64775399	     37.37680909	      8.97849289	    -21.87906603
      8.86000000	    -41.12084157	    -10.84167035	     10.14597503	   -199.22517708	    820.90564849	    -11.13584353	      9.05156592	    -45.00000000	     31.63514448	    -45.00000000	    -45.00000000	   2422.66539263	    426.78946716	     27.51636864	     92.73571535	   1453.34320134	     37.31807331	     18.19209679	      7.07896835	     15.72565311	     38.92263183	    -34.63165537	    -45.00000000	    -45.00000000	    801.57698185	  -2980.68254264	    142.23794940	    150.99659664	      9.60655683	     37.45692953	      9.34385213	    -22.06087397
      8.87000000	    -41.05867934	    -11.08754735	     10.46105486	   -199.93239373	    821.16036992	    -10.97690486	      8.58878942	    -45.00000000	     31.60039423	    -45.00000000	    -45.00000000	   2422.83966253	    426.83565504	     27.15946701	     92.57607770	   1453.17861832	     37.22667657	     17.86412802	      7.11990132	     15.19405883	     38.55557686	    -34.59520958	    -45.00000000	    -45.00000000	    801.61338894	  -2980.97283987	    142.81392499	    150.96491976	      9.71833444	     37.36319237	      8.64897405	    -21.73488839
      8.88000000	    -40.97741050	    -10.68771351	     10.38387995	   -200.49163727	    821.36823858	    -10.79667615	      9.02251951	    -45.00000000	     31.62255414	    -45.00000000	    -45.00000000	   2422.53524489	    426.66606525	     27.44286799	     92.61320571	   1453.07002515	     37.09576429	     18.14285407	      7.08810510	     15.60089326	     38.89523932	    -34.47388471	    -45.00000000	    -45.00000000	    801.67475207	  -2980.66630611	    142.43045747	    150.43371250	      9.91294400	     37.44315236	      9.27032161	    -22.09379455
      8.89000000	    -40.81560254	    -10.77644974	     10.52618252	   -200.91359393	    821.53773722	    -10.60236316	      8.76161474	    -45.00000000	     31.67453986	    -45.00000000	    -45.00000000	   2422.72817831	    427.06641712	     27.23566008	     92.59169988	   1453.37988813	     36.89825837	     17.83682163	      7.05284076	     15.25513980	     38.47343699	    -34.39139402	    -45.00000000	    -45.00000000	    801.44681255	  -2981.11147687	    142.80675384	    150.38702120	      9.59969998	     37.37709322	      8.45148949	    -21.59603227
      8.90000000	    -40.75351031	    -10.73679030	     10.51573684	   -201.21821614	    821.68331230	    -10.39859146	      8.95626874	    -45.00000000	     31.76158326	    -45.00000000	    -45.00000000	   2422.58078914	    426.86515781	     27.49864741	     92.58243406	   1453.13695953	     36.73343045	     18.12652224	      7.07306046	     15.46187269	     38.80716161	    -34.31513228	    -45.00000000	    -45.00000000	    801.58675830	  -2981.08365743	    142.70153116	    150.02359671	      9.78982000	     37.46718573	      9.05617042	    -21.92639909
      8.91000000	    -40.72239600	    -10.54270152	     10.44022357	   -201.40986152	    821.81353191	    -10.19792781	      8.92361145	    -45.00000000	     31.66583472	    -45.00000000	    -45.00000000	   2422.70803342	    426.90521234	     27.42868320	     92.61903139	   1453.12743661	     36.56102640	     17.88300476	      7.07531219	     15.33733303	     38.54350210	    -34.18358719	    -45.00000000	    -45.00000000	    801.41074980	  -2980.94191148	    142.75621677	    149.90666067	      9.84515092	     37.41902242	      8.51889639	    -21.69078602
      8.92000000	    -40.67449278	    -10.64277496	     10.68848477	   -201.50634848	    821.94326384	    -10.00422520	      8.95946235	    -45.00000000	     31.70818798	    -45.00000000	    -45.00000000	   2422.46635863	    426.78761765	     27.47768982	     92.51519977	   1453.02886395	     36.43228449	     18.14190755	      7.06596686	     15.40110812	     38.80831929	    -34.22581242	    -45.00000000	    -45.00000000	    801.63855492	  -2981.03842499	    142.80480241	    149.72984080	      9.87921356	     37.51371985	      8.92573317	    -21.85355215
      8.93000000	    -40.64961617	    -10.36855859	     10.37638101	   -201.51999314	    822.08155156	     -9.82599097	      9.02576585	    -45.00000000	     31.65564649	    -45.00000000	    -45.00000000	   2422.84364126	    426.92165182	     27.48618376	     92.67139775	   1453.12937925	     36.31894348	     17.74842197	      7.06683175	     15.35943938	     38.37556257	    -34.07999215	    -45.00000000	    -45.00000000	    801.36072267	  -2980.87685901	    142.78151854	    149.72329395	      9.92300286	     37.45887025	      8.07207665	    -21.49696383
